# AST/ASF file generated using VICON BodyLanguage
# -----------------------------------------------
:version 1.10
:name VICON
:units
  mass 1.0
  length 0.45
  angle deg
:documentation
   .ast/.asf automatically generated from VICON data using
   VICON BodyBuilder and BodyLanguage model FoxedUp or BRILLIANT.MOD
:root
   order TX TY TZ RX RY RZ
   axis XYZ
   position 0 0 0  
   orientation 0 0 0 
:bonedata
  begin
     id 1 
     name lhipjoint
     direction 0.624716 -0.669793 0.401383 
     length 2.38238 
     axis 0 0 0  XYZ
  end
  begin
     id 2 
     name lfemur
     direction 0.34202 -0.939693 0  
     length 6.4574  
     axis 0 0 20  XYZ
    dof rx ry rz
    limits (-160.0 20.0)
           (-70.0 70.0)
           (-60.0 70.0)
  end
  begin
     id 3 
     name ltibia
     direction 0.34202 -0.939693 0   
     length 7.68739   
     axis 0 0 20   XYZ
    dof rx
    limits (-10.0 170.0)
  end
  begin
     id 4 
     name lfoot
     direction 0.0681309 -0.187188 0.979959   
     length 2.46615   
     axis -90 7.62852e-016 20   XYZ
    dof rx rz
    limits (-45.0 90.0)
           (-70.0 20.0)
  end
  begin
     id 5 
     name ltoes
     direction 1.53566e-011 -4.21819e-011 1   
     length 1.2376   
     axis -90 7.62852e-016 20   XYZ
    dof rx
    limits (-90.0 20.0)
  end
  begin
     id 6 
     name rhipjoint
     direction -0.644473 -0.655875 0.393043   
     length 2.43293  
     axis 0 0 0  XYZ 
  end
  begin
     id 7 
     name rfemur
     direction -0.34202 -0.939693 0   
     length 6.7025   
     axis 0 0 -20   XYZ
    dof rx ry rz
    limits (-160.0 20.0)
           (-70.0 70.0)
           (-70.0 60.0)
  end
  begin
     id 8 
     name rtibia
     direction -0.34202 -0.939693 0   
     length 7.80547   
     axis 0 0 -20   XYZ
    dof rx
    limits (-10.0 170.0)
 end
 begin
     id 9 
     name rfoot
     direction -0.0756734 -0.207911 0.975216   
     length 2.40315  
     axis -90 -7.62852e-016 -20   XYZ
    dof rx rz
    limits (-45.0 90.0)
           (-20.0 70.0)
  end
  begin
     id 10 
     name rtoes
     direction -1.5353e-011 -4.21879e-011 1   
     length 1.20477   
     axis -90 -7.62852e-016 -20   XYZ
    dof rx
    limits (-90.0 20.0)
  end
  begin
     id 11 
     name lowerback
     direction 0.0160353 0.987463 -0.157037   
     length 2.18572   
     axis 0 0 0   XYZ
    dof rx ry rz
    limits (-20.0 45.0)
           (-30.0 30.0)
           (-30.0 30.0)
  end
  begin
     id 12 
     name upperback
     direction -0.00499661 0.999756 0.0215076   
     length 2.18016   
     axis 0 0 0   XYZ
    dof rx ry rz
    limits (-20.0 45.0)
           (-30.0 30.0)
           (-30.0 30.0)
  end
  begin
     id 13 
     name thorax
     direction -0.00921346 0.995333 0.0960619   
     length 2.24923   
     axis 0 0 0   XYZ
    dof rx ry rz
    limits (-20.0 45.0)
           (-30.0 30.0)
           (-30.0 30.0)
  end
  begin
     id 14 
     name lowerneck
     direction 0.0274184 0.991181 0.12965   
     length 1.70911   
     axis 0 0 0   XYZ
    dof rx ry rz
    limits (-20.0 45.0)
           (-30.0 30.0)
           (-30.0 30.0)
  end
  begin
     id 15 
     name upperneck
     direction 0.0015627 0.999959 -0.00893559   
     length 1.69312   
     axis 0 0 0   XYZ
    dof rx ry rz
    limits (-20.0 45.0)
           (-30.0 30.0)
           (-30.0 30.0)
  end
  begin
     id 16
     name head
     direction -0.00230242 0.999856 -0.0168327  
     length 1.80241  
     axis 0 0 0   XYZ
    dof rx ry rz
    limits (-20.0 45.0)
           (-30.0 30.0)
           (-30.0 30.0)
  end
  begin
     id 17 
     name lclavicle
     direction 0.955523 0.290741 -0.0494489  
     length 3.84275  
     axis 0 0 0   XYZ
    dof ry rz
    limits (-20.0 10.0)
           (0.0 20.0)
  end
  begin
     id 18 
     name lhumerus
     direction 1 -4.48967e-011 -3.18382e-028   
     length 5.17714   
     axis 180 -30 -90   XYZ
    dof rx ry rz
    limits (-60.0 90.0)
           (-90.0 90.0)
           (-90.0 90.0)
  end
  begin
     id 19
     name lradius
     direction 1 -4.48968e-011 -2.22911e-027   
     length 3.43679   
     axis 180 -30 -90   XYZ
    dof rx
    limits (-10.0 170.0)
  end
  begin
     id 20
     name lwrist
     direction 1 -4.48951e-011 -6.32245e-027   
     length 1.7184   
     axis 3.57107e-015 90 90   XYZ
    dof ry
    limits (-180.0 0.0)
 end
  begin
     id 21 
     name lhand
     direction 1 -4.48924e-011 -1.26431e-026   
     length 0.573117   
     axis 8.06912e-015 90 90   XYZ
    dof rx rz
    limits (-90.0 90.0)
           (-45.0 45.0)
  end
  begin
     id 22 
     name lfingers
     direction 1 -4.49001e-011 -2.52965e-026   
     length 0.462062   
     axis 1.61381e-014 90 90   XYZ
    dof rx
    limits (0.0 90.0)
  end
  begin
     id 23
     name lthumb
     direction 0.707107 -6.35008e-011 0.707107   
     length 0.663431   
     axis -90 45 -1.62303e-014   XYZ
    dof rx rz
    limits (-45.0 45.0)
           (-45.0 45.0)
  end
  begin
     id 24 
     name rclavicle
     direction -0.963917 0.256881 -0.0698287   
     length 3.73057  
     axis 0 0 0   XYZ 
    dof ry rz
    limits (-10.0 20.0)
           (-20.0 0.0)
  end
  begin
     id 25 
     name rhumerus
     direction -1 -4.48962e-011 -2.73982e-027  
     length 5.23908   
     axis 180 30 90   XYZ
    dof rx ry rz
    limits (-90.0 60.0)
           (-90.0 90.0)
           (-90.0 90.0)
  end
  begin
     id 26 
     name rradius
     direction -1 -4.48968e-011 -4.33218e-027   
     length 3.46485   
     axis 180 30 90   XYZ
    dof rx
    limits (-10.0 170.0)
  end
  begin
     id 27 
     name rwrist
     direction -1 -4.48989e-011 -6.32372e-027   
     length 1.73243   
     axis 3.57107e-015 -90 -90   XYZ
    dof ry
    limits (-180.0 0.0)
  end
  begin
     id 28
     name rhand
     direction -1 -4.48948e-011 -1.26448e-026   
     length 0.608752   
     axis 8.06912e-015 -90 -90   XYZ
    dof rx rz
    limits (-90.0 90.0)
           (-45.0 45.0)
  end
  begin
     id 29
     name rfingers
     direction -1 -4.48962e-011 -2.52913e-026   
     length 0.490792   
     axis 1.61381e-014 -90 -90   XYZ
    dof rx
    limits (0.0 90.0)
  end
  begin
     id 30
     name rthumb
     direction -0.707107 -6.34878e-011 0.707107   
     length 0.704682   
     axis -90 -45 1.62303e-014   XYZ
    dof rx rz
    limits (-45.0 45.0)
           (-45.0 45.0)
  end
:hierarchy
  begin
    root lhipjoint rhipjoint lowerback
    lhipjoint lfemur
    lfemur ltibia
    ltibia lfoot
    lfoot ltoes
    rhipjoint rfemur
    rfemur rtibia
    rtibia rfoot
    rfoot rtoes
    lowerback upperback
    upperback thorax
    thorax lowerneck lclavicle rclavicle
    lowerneck upperneck
    upperneck head
    lclavicle lhumerus
    lhumerus lradius
    lradius lwrist
    lwrist lhand lthumb
    lhand lfingers
    rclavicle rhumerus
    rhumerus rradius
    rradius rwrist
    rwrist rhand rthumb
    rhand rfingers
  end

#!OML:ASF G:\JayActor3\Patient Classification 1\Patient 1\Session 6\male.ASF
:FULLY-SPECIFIED
:DEGREES
617
root 3.54939 15.9702 -9.65418 2.68827 -13.8859 2.72427
lowerback 22.3971 -3.20569 0.293937
upperback 3.55554 -4.09241 0.480067
thorax -8.56527 -1.96266 1.55118
lowerneck -7.70263 -1.23318 3.57777
upperneck 12.2629 -2.23647 0.699562
head 4.92182 -0.89472 -0.512724
rclavicle -3.598e-014 2.36554e-014
rhumerus -36.9004 10.9384 -87.4749
rradius 127.112
rwrist 13.0905
rhand 16.2024 -20.9313
rfingers 7.12502
rthumb 40.9822 -45.8533
lclavicle -3.598e-014 2.36554e-014
lhumerus -47.3065 -4.03483 94.0916
lradius 128.094
lwrist 3.14226
lhand 0.746576 40.9253
lfingers 7.12502
lthumb 26.3053 69.1213
rfemur -38.7762 -7.17214 23.3275
rtibia 47.4591
rfoot -21.0773 -15.8903
rtoes -0.0338769
lfemur -6.17731 20.4988 -15.9534
ltibia 56.9914
lfoot 3.40969 -12.5459
ltoes -4.48792
618
root 3.51212 15.9645 -9.57894 2.73862 -13.8204 2.72227
lowerback 22.5349 -3.16914 0.547078
upperback 3.60465 -3.96838 0.630808
thorax -8.5918 -1.90828 1.54233
lowerneck -7.67161 -1.23022 3.58542
upperneck 12.3432 -2.23516 0.708449
head 4.94151 -0.891865 -0.511397
rclavicle 4.05521e-014 -5.48646e-014
rhumerus -36.7526 11.0016 -87.4324
rradius 127.121
rwrist 13.1027
rhand 16.0974 -20.9469
rfingers 7.12502
rthumb 40.8836 -45.9002
lclavicle 4.05521e-014 -5.48646e-014
lhumerus -47.2796 -4.05906 94.1071
lradius 128.149
lwrist 3.13019
lhand 0.696547 40.8652
lfingers 7.12502
lthumb 26.2574 69.0683
rfemur -38.7512 -7.47269 23.4176
rtibia 47.8266
rfoot -20.8948 -15.6194
rtoes 0.69835
lfemur -7.41415 20.8934 -15.6988
ltibia 59.1367
lfoot 4.01298 -12.2557
ltoes -3.44807
619
root 3.47521 15.9575 -9.50554 2.78305 -13.7426 2.708
lowerback 22.686 -3.13837 0.815086
upperback 3.65635 -3.84759 0.779199
thorax -8.62306 -1.85586 1.52383
lowerneck -7.62696 -1.2335 3.57611
upperneck 12.4248 -2.24274 0.741337
head 4.95966 -0.892646 -0.500343
rclavicle 3.22031e-014 9.93923e-015
rhumerus -36.6145 11.0566 -87.3948
rradius 127.123
rwrist 13.1387
rhand 15.9663 -20.9565
rfingers 7.12502
rthumb 40.7604 -45.9485
lclavicle 3.22031e-014 9.93923e-015
lhumerus -47.2462 -4.09749 94.1157
lradius 128.187
lwrist 3.13488
lhand 0.657483 40.8362
lfingers 7.12502
lthumb 26.22 69.0449
rfemur -38.7252 -7.7583 23.5153
rtibia 48.2057
rfoot -20.7525 -15.3638
rtoes 1.45672
lfemur -8.67021 21.2528 -15.453
ltibia 61.2756
lfoot 4.25095 -11.9786
ltoes -2.73706
620
root 3.4376 15.9494 -9.43394 2.81934 -13.646 2.67532
lowerback 22.8496 -3.11421 1.09186
upperback 3.7138 -3.73218 0.928349
thorax -8.6543 -1.80625 1.50294
lowerneck -7.57027 -1.24154 3.56298
upperneck 12.5076 -2.2584 0.793571
head 4.97633 -0.896359 -0.483092
rclavicle 3.37934e-014 -1.98785e-014
rhumerus -36.4842 11.0997 -87.3586
rradius 127.109
rwrist 13.2064
rhand 15.798 -20.9372
rfingers 7.12502
rthumb 40.6023 -45.9786
lclavicle 3.37934e-014 -1.98785e-014
lhumerus -47.2008 -4.14143 94.1088
lradius 128.209
lwrist 3.15802
lhand 0.666994 40.805
lfingers 7.12502
lthumb 26.2291 69.0124
rfemur -38.6875 -8.02201 23.6269
rtibia 48.5899
rfoot -20.6512 -15.132
rtoes 2.22088
lfemur -9.93105 21.5894 -15.1972
ltibia 63.3881
lfoot 4.09027 -11.7872
ltoes -2.50593
621
root 3.39866 15.9404 -9.36439 2.85506 -13.523 2.61152
lowerback 23.0228 -3.09889 1.37717
upperback 3.77597 -3.62403 1.08803
thorax -8.68443 -1.76021 1.49096
lowerneck -7.50627 -1.25244 3.55127
upperneck 12.5968 -2.27931 0.855107
head 4.99382 -0.901901 -0.4635
rclavicle 4.83047e-014 -5.80451e-014
rhumerus -36.3558 11.134 -87.3097
rradius 127.079
rwrist 13.2823
rhand 15.6305 -20.8817
rfingers 7.12502
rthumb 40.4448 -45.972
lclavicle 4.83047e-014 -5.80451e-014
lhumerus -47.1414 -4.17804 94.0921
lradius 128.215
lwrist 3.20441
lhand 0.684865 40.8007
lfingers 7.12502
lthumb 26.2462 69.0055
rfemur -38.6371 -8.26702 23.7699
rtibia 48.9709
rfoot -20.5831 -14.9372
rtoes 2.92761
lfemur -11.2017 21.9002 -14.9117
ltibia 65.462
lfoot 3.57969 -11.7329
ltoes -2.67898
622
root 3.35826 15.9306 -9.29697 2.88662 -13.3745 2.52777
lowerback 23.2051 -3.09108 1.66077
upperback 3.84417 -3.52439 1.25253
thorax -8.7115 -1.71813 1.48781
lowerneck -7.43794 -1.26502 3.55173
upperneck 12.6952 -2.30527 0.924452
head 5.01343 -0.908701 -0.443804
rclavicle -9.93923e-016 -1.98785e-015
rhumerus -36.2278 11.1534 -87.2564
rradius 127.031
rwrist 13.3686
rhand 15.4791 -20.7961
rfingers 7.12502
rthumb 40.3024 -45.9302
lclavicle -9.93923e-016 -1.98785e-015
lhumerus -47.0661 -4.21205 94.0609
lradius 128.203
lwrist 3.27479
lhand 0.70624 40.8043
lfingers 7.12502
lthumb 26.2667 69.0061
rfemur -38.5736 -8.4936 23.9335
rtibia 49.3487
rfoot -20.5537 -14.7837
rtoes 3.58036
lfemur -12.4823 22.1945 -14.6035
ltibia 67.4868
lfoot 2.81264 -11.8476
ltoes -3.16507
